<svg style="display: none;" xmlns="http://www.w3.org/2000/svg" xmlns:xlink="http://www.w3.org/1999/xlink"><symbol viewBox="0 0 25 25" id="error"><path d="M18 0H7L0 7v11l7 7h11l7-7V7l-7-7zm1.5 17.2l-2.3 2.3-4.7-4.7-4.7 4.7-2.3-2.3 4.7-4.7-4.7-4.7 2.3-2.3 4.7 4.7 4.7-4.7 2.3 2.3-4.7 4.7 4.7 4.7z" fill="#ba2a17"/></symbol><symbol viewBox="0 0 25 25" id="success"><path fill="#92bd10" d="M20.9 9.9c0 .3-.1.5-.3.7l-8.8 8.8c-.2.2-.5.3-.7.3-.3 0-.5-.1-.7-.3l-5.9-5.9c-.2-.2-.3-.5-.3-.7 0-.3.1-.6.3-.7L6 10.6c.2-.2.5-.3.7-.3.3 0 .5.1.7.3l3.7 3.7 6.6-6.6c.2-.2.5-.3.7-.3.3 0 .5.1.7.3l1.5 1.5c.2.1.3.4.3.7zm4.1 2.6C25 5.6 19.4 0 12.5 0S0 5.6 0 12.5 5.6 25 12.5 25 25 19.4 25 12.5z"/></symbol><symbol viewBox="0 0 25 25" id="warning"><path fill="#e6970e" d="M24.7 22.4L14 1.1C13.6.4 13 0 12.5 0S11.4.4 11 1.1L.3 22.4C-.5 23.8.2 25 1.9 25h21.2c1.7 0 2.4-1.2 1.6-2.6zm-12.2-.5c-.9 0-1.6-.7-1.6-1.6s.7-1.6 1.6-1.6c.9 0 1.6.7 1.6 1.6s-.7 1.6-1.6 1.6zm1.6-6.3c0 .9-.7 1.6-1.6 1.6-.9 0-1.6-.7-1.6-1.6v-4.7c0-.9.7-1.6 1.6-1.6.9 0 1.6.7 1.6 1.6v4.7z"/></symbol></svg>