<svg viewBox="0 0 20 20" xmlns="http://www.w3.org/2000/svg"><path d="M11.429 16.203v-2.12a.356.356 0 0 0-.106-.263.343.343 0 0 0-.252-.106H8.93a.343.343 0 0 0-.252.106.356.356 0 0 0-.106.263v2.12c0 .104.036.192.106.262.071.071.155.106.252.106h2.142c.097 0 .18-.035.252-.106a.356.356 0 0 0 .106-.262zm-.023-4.174l.201-5.123c0-.089-.037-.16-.111-.212-.097-.082-.186-.123-.268-.123H8.772c-.082 0-.17.041-.268.123-.074.052-.111.13-.111.235l.19 5.1c0 .074.037.136.111.184a.48.48 0 0 0 .268.073h2.065a.454.454 0 0 0 .262-.073c.07-.048.11-.11.117-.184zM11.25 1.605l8.571 15.714c.26.469.253.938-.022 1.406-.126.216-.3.387-.519.514-.22.126-.456.19-.709.19H1.43c-.253 0-.49-.064-.71-.19a1.402 1.402 0 0 1-.518-.514c-.275-.468-.283-.937-.022-1.406L8.75 1.605A1.425 1.425 0 0 1 10 .857a1.425 1.425 0 0 1 1.25.748z" fill="#c40233" fill-rule="evenodd"/></svg>
